# xmcd CD database file
#
# Track frame offsets:
#	150
#	15283
#	32522
#	55525
#	60754
#	80571
#	117606
#	134526
#	148472
#	155339
#	175419
#	192679
#
# Disc length: 2791 seconds
#
# Revision: 4
# Processed by: cddbd v1.5.2PL0 Copyright (c) Steve Scherf et al.
# Submitted via: CDex 1.50
#
DISCID=a30ae50c
DTITLE=Blodwyn Pig - Getting To This
DYEAR=1970
DGENRE=Rock
TTITLE0=Drive Me
TTITLE1=Variations On Nainos
TTITLE2=See My Way
TTITLE3=Long Bomb Blues
TTITLE4=The Squirreling Must Go On
TTITLE5=San Fransisco Sketches
TTITLE6=Worry
TTITLE7=Toys
TTITLE8=To Rassman
TTITLE9=Send Your Son to Die
TTITLE10=Summer Day (bonus)
TTITLE11=Walk On The Water (bonus)
EXTD=YEAR: 1970
EXTT0=
EXTT1=
EXTT2=
EXTT3=
EXTT4=
EXTT5=
EXTT6=
EXTT7=
EXTT8=
EXTT9=
EXTT10=
EXTT11=
PLAYORDER=
